<svg viewBox="0 0 120 96" fill="none" xmlns="http://www.w3.org/2000/svg" role="img">
  <!-- The vector field: the mechanism, written down -->
  <g stroke="currentColor" stroke-width="0.9" stroke-linecap="round" opacity="0.4">
    <line x1="24.3" y1="89.0" x2="21.6" y2="83.4"/><line x1="22.6" y1="64.7" x2="22.6" y2="58.6"/><line x1="20.1" y1="38.4" x2="24.0" y2="33.5"/><line x1="19.0" y1="12.3" x2="24.6" y2="9.6"/><line x1="50.4" y1="87.9" x2="45.5" y2="84.0"/><line x1="49.0" y1="64.4" x2="46.3" y2="58.8"/><line x1="43.6" y1="37.0" x2="49.2" y2="34.3"/><line x1="43.3" y1="10.6" x2="49.4" y2="10.6"/><line x1="76.7" y1="85.4" x2="70.6" y2="85.4"/><line x1="76.4" y1="59.0" x2="70.8" y2="61.7"/><line x1="71.0" y1="31.6" x2="73.7" y2="37.2"/><line x1="69.6" y1="8.1" x2="74.5" y2="12.0"/><line x1="101.0" y1="83.7" x2="95.4" y2="86.4"/><line x1="99.9" y1="57.6" x2="96.0" y2="62.5"/><line x1="97.4" y1="31.3" x2="97.4" y2="37.4"/><line x1="95.7" y1="7.0" x2="98.4" y2="12.6"/>
  </g>
  <g opacity="0.4"><path d="M20.5 81.1 L23.6 84.4 L21.2 85.6 Z" fill="currentColor"/><path d="M22.6 56.0 L23.9 60.3 L21.3 60.3 Z" fill="currentColor"/><path d="M25.6 31.5 L23.9 35.7 L21.8 34.1 Z" fill="currentColor"/><path d="M26.9 8.5 L23.6 11.6 L22.4 9.2 Z" fill="currentColor"/><path d="M43.5 82.4 L47.7 84.1 L46.1 86.2 Z" fill="currentColor"/><path d="M45.2 56.4 L48.3 59.8 L45.9 60.9 Z" fill="currentColor"/><path d="M51.6 33.2 L48.2 36.3 L47.1 33.9 Z" fill="currentColor"/><path d="M52.0 10.6 L47.7 11.9 L47.7 9.3 Z" fill="currentColor"/><path d="M68.0 85.4 L72.3 84.1 L72.3 86.7 Z" fill="currentColor"/><path d="M68.4 62.8 L71.8 59.7 L72.9 62.1 Z" fill="currentColor"/><path d="M74.8 39.6 L71.7 36.2 L74.1 35.1 Z" fill="currentColor"/><path d="M76.5 13.6 L72.3 11.9 L73.9 9.8 Z" fill="currentColor"/><path d="M93.1 87.5 L96.4 84.4 L97.6 86.8 Z" fill="currentColor"/><path d="M94.4 64.5 L96.1 60.3 L98.2 61.9 Z" fill="currentColor"/><path d="M97.4 40.0 L96.1 35.7 L98.7 35.7 Z" fill="currentColor"/><path d="M99.5 14.9 L96.4 11.6 L98.8 10.4 Z" fill="currentColor"/></g>
  <!-- One trajectory through it -->
  <path d="M103.3 25.0 L103.9 31.1 L103.7 37.0 L102.9 42.5 L101.5 47.7 L99.5 52.5 L97.1 56.8 L94.3 60.6 L91.2 64.0 L87.9 66.8 L84.4 69.1 L80.8 70.9 L77.2 72.2 L73.6 73.0 L70.0 73.3 L66.7 73.3 L63.4 72.8 L60.4 72.0 L57.6 70.9 L55.1 69.5 L52.9 67.9 L50.9 66.2 L49.3 64.3 L47.9 62.3 L46.9 60.2 L46.1 58.1 L45.6 56.0 L45.4 54.0 L45.4 52.0 L45.6 50.1 L46.1 48.4 L46.7 46.8 L47.5 45.3 L48.4 44.0 L49.4 42.9 L50.5 41.9 L51.7 41.1 L52.9 40.5 L54.1 40.0 L55.3 39.7 L56.4 39.6 L57.6 39.6 L58.7 39.7 L59.7 39.9 L60.6 40.3 L61.5 40.7 L62.2 41.3 L62.9 41.8 L63.5 42.5 L63.9 43.1 L64.3 43.8 L64.6 44.5 L64.8 45.2 L64.9 45.9 L64.9 46.5 L64.8 47.2 L64.7 47.8 L64.5 48.3 L64.2 48.8 L63.9 49.3 L63.6 49.6 L63.2 50.0 L62.8 50.3 L62.4 50.5 L62.0 50.6 L61.6 50.7 L61.3 50.8 L60.9 50.8 L60.5 50.8 L60.2 50.7 L59.8 50.6 L59.6 50.4 L59.3 50.3 L59.1 50.1 L58.9 49.9 L58.7 49.7 L58.6 49.4 L58.5 49.2 L58.4 49.0 L58.4 48.7 L58.4 48.5 L58.4 48.3 L58.4 48.1 L58.5 47.9 L58.6 47.8 L58.7 47.6 L58.8 47.5 L58.9 47.4 L59.0 47.3 L59.2 47.2 L59.3 47.1 L59.4 47.1 L59.6 47.1" stroke="var(--accent)" stroke-width="1.5" fill="none" stroke-linejoin="round" stroke-linecap="round"/>
  <circle cx="103.3" cy="25.0" r="2.4" fill="var(--accent)"/>
  <circle cx="60" cy="48" r="2.6" fill="var(--paper)" stroke="var(--accent)" stroke-width="1.3"/>
</svg>
