<?xml version="1.0" encoding="UTF-8"?>
<svg xmlns="http://www.w3.org/2000/svg" version="1.1" viewBox="0 0 1024 1024">
  <!-- Generator: Adobe Illustrator 29.4.0, SVG Export Plug-In . SVG Version: 2.1.0 Build 152)  -->
  <defs>
    <style>
      .st0 {
        fill: none;
      }

      .st1 {
        fill: #57744b;
      }

      .st2 {
        fill: #d0d0d0;
      }

      .st3 {
        fill: #fff;
      }

      .st4 {
        fill: #577483;
      }
    </style>
  </defs>
  <g id="Layer_1">
    <path class="st3" d="M1024,0v1024H0V0h1024ZM699.99,609.99c-43.66,15.61-57.7,96.16-108.48,92.99-29.76-1.86-63.4-30.16-91.25-41.74-70.99-29.54-129.07-20.66-202.77-16.25-58.6,3.5-114.86,6.32-147.66-51.32-44.36-77.95,1.2-187.82,43.75-257.59,61.36-100.59,166.97-200.01,288.05-216.95,230.03-32.18,403.82,171.41,419.35,386.37,9.59,132.7-58.5,258.73-161.09,338.89-181.38,141.71-414.61,71.61-539.71-105.08-4.07-5.75-12.59-21.94-16.67-25.33-7.08-5.88-14.72-1.41-14.2,7.38.35,5.91,18.69,30.26,23.29,36.53,139.51,189.75,392.9,247.45,578.41,83.62,106.5-94.06,163.29-224.65,144.84-367.87-28.88-224.28-230.05-424.24-467.68-365.97-145.11,35.58-279.26,192.51-320.67,332.33-28.47,96.14-9.6,215.82,110.95,223.04,85.6,5.12,162-23.93,246.51,10.49,42.22,17.2,91.15,63.49,138.7,38.64,31.72-16.57,41.44-57.23,68.86-80.14,38.82-32.43,85.07-20.01,130.96-23.04,15-.99,19.31-5.45,3.87-12.85-21.89-10.48-38.13-10.78-57.88-28.12-39.05-34.27-73.95-91.53-107.52-132.48-7.36-8.98-15.94-22.09-29.36-20.46-10.6,1.29-23.67,18.44-31.86,16.75-4.68-.97-16.12-18.71-19.55-23.51-14.48-20.3-28.59-44.4-45.21-62.79-23.23-25.7-35.32-16.89-55.49,5.46-24.53,27.18-45.08,60.56-67.09,89.91-3.44,4.59-15.55,22.13-20.13,22.96-5.71,1.03-13.34-8.4-18.58-11.03-16.51-8.31-30.54,6.1-41.2,17.17-29.15,30.27-64.27,85.34-99.18,105.82-9.58,5.62-32.92,12.52-38.31,20.69-3.3,5.01-1.77,10.26,3.97,12.02,139.54.54,278.98-.61,418.58.44,26.5.2,52.3,1.23,78.93,0,1.09-.05,2.79-.54,2.52,1.03ZM524.79,174.29c-99.12,5.67-188.42,64.8-245.18,143.82-20.76,28.9-64.15,96.29-14.64,119.42,40.4,18.87,88.35-26.42,112-55.05,36.36-44.02,54.06-99.36,110.35-123.65,45.41-19.59,89.61-9.43,120.65,28.7,23.52,28.9,28.98,66.05,57.5,92.5,21.43,19.87,59.51,36.28,85.54,15.49,34.31-27.42,16.59-76.15-3.38-106.64-48.51-74.08-133.43-119.69-222.84-114.57ZM780.74,439.24c-11.89,1.85-25.08,13.85-28.93,25.07-17.15,50.06,71.18,99.3,95.01,54.01,19.36-36.81-26.1-85.31-66.08-79.08ZM777.83,633.24c-75.64,2.46-82.34,113.62-134.52,141.57-57.44,30.78-106.84-26.55-150.39-54.23-50.52-32.1-103.19-45.17-163.27-37.44-41.54,5.34-90.14,32.69-61.45,80.16,50.08,82.84,196.66,126.61,288.3,119.69,96.78-7.32,204.34-75.82,250.68-161.32,18.9-34.86,26.3-90.24-29.34-88.43Z"/>
    <path class="st1" d="M699.99,609.99c.27-1.57-1.42-1.08-2.52-1.03-26.62,1.22-52.43.19-78.93,0-139.6-1.05-279.04.1-418.58-.44-5.74-1.75-7.27-7.01-3.97-12.02,5.39-8.17,28.73-15.07,38.31-20.69,34.91-20.48,70.03-75.55,99.18-105.82,10.66-11.07,24.69-25.48,41.2-17.17,5.24,2.64,12.87,12.06,18.58,11.03,4.58-.83,16.69-18.37,20.13-22.96,22.02-29.35,42.56-62.72,67.09-89.91,20.17-22.35,32.26-31.16,55.49-5.46,16.62,18.39,30.73,42.49,45.21,62.79,3.43,4.81,14.87,22.55,19.55,23.51,8.19,1.69,21.26-15.46,31.86-16.75,13.42-1.63,22.01,11.48,29.36,20.46,33.56,40.95,68.47,98.21,107.52,132.48,19.75,17.34,36,17.63,57.88,28.12,15.44,7.4,11.13,11.86-3.87,12.85-45.89,3.03-92.14-9.39-130.96,23.04-27.42,22.91-37.15,63.57-68.86,80.14-47.55,24.85-96.48-21.44-138.7-38.64-84.51-34.42-160.91-5.37-246.51-10.49-120.56-7.21-139.43-126.9-110.95-223.04,41.41-139.82,175.56-296.75,320.67-332.33,237.64-58.27,438.8,141.69,467.68,365.97,18.44,143.23-38.34,273.82-144.84,367.87-185.51,163.83-438.9,106.13-578.41-83.62-4.61-6.26-22.94-30.62-23.29-36.53-.53-8.79,7.11-13.26,14.2-7.38,4.08,3.39,12.6,19.58,16.67,25.33,125.1,176.69,358.34,246.79,539.71,105.08,102.59-80.15,170.68-206.18,161.09-338.89-15.54-214.97-189.32-418.55-419.35-386.37-121.08,16.94-226.7,116.36-288.05,216.95-42.56,69.77-88.11,179.64-43.75,257.59,32.8,57.64,89.06,54.82,147.66,51.32,73.7-4.41,131.78-13.29,202.77,16.25,27.85,11.59,61.49,39.89,91.25,41.74,50.78,3.17,64.82-77.38,108.48-92.99Z"/>
    <path class="st4" d="M524.79,174.29c89.41-5.11,174.33,40.5,222.84,114.57,19.97,30.49,37.7,79.22,3.38,106.64-26.02,20.8-64.11,4.39-85.54-15.49-28.52-26.45-33.98-63.6-57.5-92.5-31.04-38.13-75.24-48.29-120.65-28.7-56.29,24.29-73.99,79.63-110.35,123.65-23.65,28.63-71.6,73.92-112,55.05-49.51-23.13-6.12-90.52,14.64-119.42,56.76-79.01,146.07-138.15,245.18-143.82ZM531.79,191.29c-103.52,1.49-225.9,86.89-265.26,181.74-15.58,37.54-1.53,63.89,40.43,46.43,63.08-26.24,85.96-108.37,134.02-150.98,55.07-48.82,137.8-50.63,183.43,11.6,25.68,35.02,28.41,77.41,71.57,99.43,37.04,18.91,63.06-2.95,53.72-42.72-17.73-75.49-125.93-146.59-202.16-145.84l-15.75.34Z"/>
    <path class="st4" d="M777.83,633.24c55.64-1.81,48.24,53.57,29.34,88.43-46.35,85.5-153.9,154-250.68,161.32-91.64,6.93-238.22-36.84-288.3-119.69-28.7-47.47,19.91-74.82,61.45-80.16,60.09-7.73,112.75,5.34,163.27,37.44,43.56,27.68,92.96,85.01,150.39,54.23,52.17-27.96,58.88-139.11,134.52-141.57ZM778.8,649.28c-72.54,5.13-70.43,135.39-153.55,149.47-67.44,11.42-109.24-48.72-162.23-76.27-42.34-22.01-96.15-31.35-143.03-20.99-74.23,16.4-35.32,65.18,3.09,94.92,82.57,63.95,205.19,88.48,304.43,52.6,62.42-22.57,142.66-83.21,169.95-145.05,9.3-21.08,15.57-57.11-18.66-54.68Z"/>
    <path class="st4" d="M780.74,439.24c39.99-6.23,85.44,42.28,66.08,79.08-23.83,45.29-112.16-3.95-95.01-54.01,3.85-11.22,17.04-23.22,28.93-25.07ZM786.78,456.28c-14.52,1.55-22.33,12.99-20.79,27.22,1.98,18.29,30.68,39.4,48.51,37.49,7.7-.82,17.73-8.58,18.49-16.5,2.08-21.73-24.06-50.58-46.22-48.22Z"/>
    <path class="st3" d="M531.79,191.29l15.75-.34c76.23-.75,184.43,70.34,202.16,145.84,9.34,39.77-16.68,61.63-53.72,42.72-43.16-22.03-45.88-64.41-71.57-99.43-45.63-62.23-128.35-60.42-183.43-11.6-48.06,42.61-70.94,124.74-134.02,150.98-41.97,17.46-56.01-8.89-40.43-46.43,39.36-94.85,161.74-180.25,265.26-181.74Z"/>
    <path class="st3" d="M778.8,649.28c34.24-2.42,27.97,33.6,18.66,54.68-27.29,61.84-107.53,122.48-169.95,145.05-99.24,35.88-221.86,11.34-304.43-52.6-38.41-29.75-77.32-78.53-3.09-94.92,46.88-10.36,100.69-1.02,143.03,20.99,52.99,27.55,94.78,87.69,162.23,76.27,83.12-14.07,81.01-144.34,153.55-149.47ZM371.78,729.28c-30.27,3.42-39.13,26.8-19.75,50.19,20.17,24.33,78.76,49.09,106.45,27.51,26.61-20.75-1.65-51.76-22.46-63.49-17.43-9.83-44.32-16.45-64.24-14.2Z"/>
    <path class="st3" d="M786.78,456.28c22.16-2.37,48.3,26.49,46.22,48.22-.76,7.92-10.8,15.68-18.49,16.5-17.83,1.91-46.53-19.2-48.51-37.49-1.54-14.23,6.27-25.67,20.79-27.22Z"/>
    <path class="st4" d="M371.78,729.28c19.92-2.25,46.81,4.37,64.24,14.2,20.81,11.73,49.07,42.75,22.46,63.49-27.69,21.59-86.28-3.18-106.45-27.51-19.39-23.39-10.53-46.77,19.75-50.19ZM369.76,745.26c-14.76,2.12-14.59,13.03-6.74,23.22,13.64,17.68,48.47,31.75,70.46,30.5,26.09-1.48,21.26-19.91,5.98-32.95-16.97-14.49-47.58-23.94-69.71-20.77Z"/>
    <path class="st3" d="M369.76,745.26c22.13-3.17,52.74,6.28,69.71,20.77,15.28,13.04,20.11,31.47-5.98,32.95-21.99,1.25-56.83-12.82-70.46-30.5-7.86-10.18-8.03-21.1,6.74-23.22Z"/>
    <path class="st0" d="M699.99,609.99c.27-1.57-1.42-1.08-2.52-1.03-26.62,1.22-52.43.19-78.93,0-139.6-1.05-279.04.1-418.58-.44-5.74-1.75-7.27-7.01-3.97-12.02,5.39-8.17,28.73-15.07,38.31-20.69,34.91-20.48,70.03-75.55,99.18-105.82,10.66-11.07,24.69-25.48,41.2-17.17,5.24,2.64,12.87,12.06,18.58,11.03,4.58-.83,16.69-18.37,20.13-22.96,22.02-29.35,42.56-62.72,67.09-89.91,20.17-22.35,32.26-31.16,55.49-5.46,16.62,18.39,30.73,42.49,45.21,62.79,3.43,4.81,14.87,22.55,19.55,23.51,8.19,1.69,21.26-15.46,31.86-16.75,13.42-1.63,22.01,11.48,29.36,20.46,33.56,40.95,68.47,98.21,107.52,132.48,19.75,17.34,36,17.63,57.88,28.12,15.44,7.4,11.13,11.86-3.87,12.85-45.89,3.03-92.14-9.39-130.96,23.04-27.42,22.91-37.15,63.57-68.86,80.14-47.55,24.85-96.48-21.44-138.7-38.64-84.51-34.42-160.91-5.37-246.51-10.49-120.56-7.21-139.43-126.9-110.95-223.04,41.41-139.82,175.56-296.75,320.67-332.33,237.64-58.27,438.8,141.69,467.68,365.97,18.44,143.23-38.34,273.82-144.84,367.87-185.51,163.83-438.9,106.13-578.41-83.62-4.61-6.26-22.94-30.62-23.29-36.53-.53-8.79,7.11-13.26,14.2-7.38,4.08,3.39,12.6,19.58,16.67,25.33,125.1,176.69,358.34,246.79,539.71,105.08,102.59-80.15,170.68-206.18,161.09-338.89-15.54-214.97-189.32-418.55-419.35-386.37-121.08,16.94-226.7,116.36-288.05,216.95-42.56,69.77-88.11,179.64-43.75,257.59,32.8,57.64,89.06,54.82,147.66,51.32,73.7-4.41,131.78-13.29,202.77,16.25,27.85,11.59,61.49,39.89,91.25,41.74,50.78,3.17,64.82-77.38,108.48-92.99Z"/>
  </g>
  <g id="Layer_2">
    <path class="st4" d="M915.86,473.64c-28.88-224.28-230.05-424.24-467.68-365.97-145.11,35.58-279.26,192.51-320.67,332.33-28.47,96.14-9.6,215.82,110.95,223.04,85.6,5.12,162-23.93,246.51,10.49,42.22,17.2,91.15,63.49,138.7,38.64,31.72-16.57,41.44-57.23,68.86-80.14,17.69-14.78,36.92-20.24,56.95-22.1-14.49.15-28.99-.24-43.48.24-2.49.08-4.98.22-7.46.37-42.52,16.85-56.82,95.57-107.03,92.43-29.76-1.86-63.4-30.16-91.25-41.74-70.99-29.54-129.07-20.66-202.77-16.25-58.6,3.5-114.86,6.32-147.66-51.32-44.36-77.95,1.2-187.82,43.75-257.59,61.36-100.59,166.97-200.01,288.05-216.95,230.03-32.18,403.82,171.41,419.35,386.37,9.59,132.7-58.5,258.73-161.09,338.89-181.38,141.71-414.61,71.61-539.71-105.08-4.07-5.75-12.59-21.94-16.67-25.33-7.08-5.88-14.72-1.41-14.2,7.38.35,5.91,18.69,30.26,23.29,36.53,139.51,189.75,392.9,247.45,578.41,83.62,106.5-94.06,163.29-224.65,144.84-367.87Z"/>
    <path class="st2" d="M798.02,609.47c-1.36-.03-2.71-.07-4.07-.09-.62,0-1.24,0-1.86-.01,1.97.04,3.95.07,5.92.1Z"/>
    <path class="st2" d="M656.14,563.15c1.14-.28,2.29-.53,3.44-.78-.09-.04-1.03.13-3.52.79.03,0,.05,0,.08,0Z"/>
  </g>
</svg>